<svg width="12" height="20" viewBox="0 0 12 20" fill="none" xmlns="http://www.w3.org/2000/svg">
<path d="M2.87422 0.900097L11.2992 9.3001C11.3992 9.4001 11.4699 9.50843 11.5112 9.6251C11.5532 9.74176 11.5742 9.86676 11.5742 10.0001C11.5742 10.1334 11.5532 10.2584 11.5112 10.3751C11.4699 10.4918 11.3992 10.6001 11.2992 10.7001L2.87422 19.1251C2.64089 19.3584 2.34922 19.4751 1.99922 19.4751C1.64922 19.4751 1.34922 19.3501 1.09922 19.1001C0.849219 18.8501 0.724219 18.5584 0.724219 18.2251C0.724219 17.8918 0.849219 17.6001 1.09922 17.3501L8.44922 10.0001L1.09922 2.6501C0.865886 2.41676 0.749219 2.12943 0.749219 1.7881C0.749219 1.4461 0.874219 1.1501 1.12422 0.900097C1.37422 0.650097 1.66589 0.525097 1.99922 0.525097C2.33255 0.525097 2.62422 0.650097 2.87422 0.900097Z" fill="black"/>
</svg>
