<svg width="12" height="20" viewBox="0 0 12 20" fill="none" xmlns="http://www.w3.org/2000/svg">
<path d="M9.12578 19.0999L0.700781 10.6999C0.600781 10.5999 0.530114 10.4916 0.488781 10.3749C0.446781 10.2582 0.425781 10.1332 0.425781 9.9999C0.425781 9.86657 0.446781 9.74157 0.488781 9.6249C0.530114 9.50824 0.600781 9.3999 0.700781 9.2999L9.12578 0.874902C9.35911 0.641569 9.65078 0.524902 10.0008 0.524902C10.3508 0.524902 10.6508 0.649902 10.9008 0.899902C11.1508 1.1499 11.2758 1.44157 11.2758 1.7749C11.2758 2.10824 11.1508 2.3999 10.9008 2.6499L3.55078 9.9999L10.9008 17.3499C11.1341 17.5832 11.2508 17.8706 11.2508 18.2119C11.2508 18.5539 11.1258 18.8499 10.8758 19.0999C10.6258 19.3499 10.3341 19.4749 10.0008 19.4749C9.66745 19.4749 9.37578 19.3499 9.12578 19.0999Z" fill="black"/>
</svg>
