<svg width="42" height="42" viewBox="0 0 42 42" fill="none" xmlns="http://www.w3.org/2000/svg">
<path d="M26.25 21C26.25 22.0384 25.9421 23.0534 25.3652 23.9167C24.7883 24.7801 23.9684 25.453 23.0091 25.8504C22.0498 26.2477 20.9942 26.3517 19.9758 26.1491C18.9574 25.9466 18.0219 25.4465 17.2877 24.7123C16.5535 23.9781 16.0534 23.0426 15.8509 22.0242C15.6483 21.0058 15.7523 19.9502 16.1496 18.9909C16.547 18.0316 17.2199 17.2117 18.0833 16.6348C18.9466 16.0579 19.9616 15.75 21 15.75C22.3911 15.7543 23.7239 16.3088 24.7075 17.2925C25.6912 18.2761 26.2457 19.6089 26.25 21ZM37.4062 13.7812V28.2188C37.4062 30.6554 36.4383 32.9923 34.7153 34.7153C32.9923 36.4383 30.6554 37.4062 28.2188 37.4062H13.7812C11.3446 37.4062 9.0077 36.4383 7.28471 34.7153C5.56172 32.9923 4.59375 30.6554 4.59375 28.2188V13.7812C4.59375 11.3446 5.56172 9.0077 7.28471 7.28471C9.0077 5.56172 11.3446 4.59375 13.7812 4.59375H28.2188C30.6554 4.59375 32.9923 5.56172 34.7153 7.28471C36.4383 9.0077 37.4062 11.3446 37.4062 13.7812ZM28.875 21C28.875 19.4425 28.4131 17.9199 27.5478 16.6249C26.6825 15.3298 25.4526 14.3205 24.0136 13.7244C22.5747 13.1284 20.9913 12.9725 19.4637 13.2763C17.9361 13.5802 16.5329 14.3302 15.4315 15.4315C14.3302 16.5329 13.5802 17.9361 13.2763 19.4637C12.9725 20.9913 13.1284 22.5747 13.7244 24.0136C14.3205 25.4526 15.3298 26.6825 16.6249 27.5478C17.9199 28.4131 19.4425 28.875 21 28.875C23.0886 28.875 25.0916 28.0453 26.5685 26.5685C28.0453 25.0916 28.875 23.0886 28.875 21ZM31.5 12.4688C31.5 12.0794 31.3845 11.6987 31.1682 11.375C30.9519 11.0512 30.6444 10.7989 30.2847 10.6499C29.9249 10.5009 29.5291 10.4619 29.1472 10.5378C28.7653 10.6138 28.4145 10.8013 28.1391 11.0766C27.8638 11.352 27.6763 11.7028 27.6003 12.0847C27.5244 12.4666 27.5634 12.8624 27.7124 13.2222C27.8614 13.5819 28.1137 13.8894 28.4375 14.1057C28.7612 14.322 29.1419 14.4375 29.5312 14.4375C30.0534 14.4375 30.5542 14.2301 30.9234 13.8609C31.2926 13.4917 31.5 12.9909 31.5 12.4688Z" fill="#385981"/>
</svg>
