<svg width="88" height="67" viewBox="0 0 88 67" fill="none" xmlns="http://www.w3.org/2000/svg">
<path d="M34.0096 12.219C33.3414 14.7744 32.696 17.3716 32.0735 20.0105C31.6819 21.6312 31.2893 23.2475 30.8958 24.8594C30.5941 29.0515 30.6238 33.2244 30.9849 37.3781C31.346 41.5318 31.914 45.0591 32.6891 47.9601C33.0168 49.195 33.4091 50.4488 33.8659 51.7214C34.3317 52.9922 34.9129 54.1919 35.6093 55.3204C36.3147 56.4471 37.1897 57.4072 38.2343 58.2009C38.3914 58.3259 38.4548 58.4708 38.4246 58.6357C38.4052 58.8075 38.3254 58.9363 38.1852 59.022C38.0469 59.1166 37.8824 59.1097 37.6916 59.0011C37.2427 58.6865 36.8282 58.3367 36.4482 57.9516C34.7922 56.1231 33.4576 53.6579 32.4441 50.556C31.4326 47.4631 30.7087 44.0574 30.2724 40.339C29.847 36.6276 29.672 32.9328 29.7474 29.2547C29.2023 31.3368 28.6275 33.4111 28.0231 35.4777C27.4188 37.5444 26.7435 39.5842 25.9972 41.5971C25.9416 41.7301 25.8825 41.8684 25.8199 42.0122C25.5514 42.7216 25.1983 43.5374 24.7607 44.4597C24.3231 45.3821 23.8081 46.1811 23.2155 46.8568C22.623 47.5325 21.9576 47.865 21.2191 47.8542C20.8519 47.7925 20.5637 47.5323 20.3543 47.0736C20.1469 46.6238 19.9851 46.1038 19.869 45.5135C19.7636 44.9302 19.6884 44.4011 19.6434 43.9261C19.6138 43.6994 19.5874 43.5093 19.5641 43.3559C19.3555 41.3223 19.2032 39.2907 19.1073 37.261C19.0292 35.9731 18.9635 34.6778 18.9103 33.3753C18.8469 31.6742 18.7568 29.9788 18.6399 28.2891C18.53 26.5886 18.3425 24.8953 18.0773 23.2091C18.0634 23.1003 18.0477 22.9825 18.0301 22.8558C18.0043 22.6469 17.9716 22.4489 17.9318 22.2616C17.892 22.0744 17.8324 21.9473 17.7529 21.8804C16.9771 21.7377 16.2573 22.0119 15.5935 22.7028C14.9386 23.3917 14.3466 24.3329 13.8175 25.5263C13.2954 26.7088 12.836 27.9666 12.4391 29.2996C12.0511 30.6307 11.7273 31.869 11.4676 33.0144C11.2149 34.1491 11.0314 35.0174 10.917 35.6194C9.86454 41.1452 9.12006 46.7173 8.68362 52.3358C8.65721 52.5184 8.56662 52.6402 8.41182 52.7011C8.26784 52.7689 8.12302 52.7671 7.97736 52.6956C7.83359 52.6329 7.75073 52.5061 7.72876 52.3151C7.72876 52.3151 7.71666 52.1267 7.69246 51.7498C7.67015 51.3818 7.63875 50.9272 7.59827 50.386C7.5667 49.843 7.53513 49.2999 7.50357 48.7568C7.47389 48.2227 7.44695 47.7672 7.42275 47.3903C7.40044 47.0223 7.38929 46.8383 7.38929 46.8383C7.27451 45.027 7.1365 43.216 6.97526 41.4052C6.81401 39.5945 6.59833 37.7907 6.3282 35.9938C6.05105 34.2077 5.65004 32.4526 5.12516 30.7285C5.08157 30.5234 5.12258 30.3656 5.24817 30.255C5.37376 30.1445 5.51802 30.0998 5.68095 30.1211C5.8528 30.1405 5.97389 30.2499 6.04422 30.4492C6.82782 33.1713 7.37544 35.9669 7.68708 38.8359C8.00574 41.694 8.23781 44.5613 8.38329 47.4377C8.93037 43.4357 9.60378 39.4581 10.4035 35.5049C10.7918 33.6054 11.2428 31.7157 11.7564 29.8361C12.2682 27.9475 12.9263 26.1117 13.7307 24.3287C13.9831 23.7626 14.3007 23.1965 14.6836 22.6306C15.0754 22.0628 15.5374 21.6058 16.0695 21.2598C16.6016 20.9137 17.2187 20.7919 17.9207 20.8942C17.9207 20.8942 17.9566 20.9099 18.0285 20.9412C18.0985 20.9636 18.1948 21.0223 18.3175 21.1174C18.4402 21.2124 18.5753 21.3654 18.7226 21.5764C18.8699 21.7873 19.028 22.0706 19.1967 22.4261C19.468 23.1325 19.6234 23.8636 19.6629 24.6193C19.6716 24.7479 19.6848 24.8755 19.7024 25.0022C19.9306 27.479 20.0695 29.9514 20.1189 32.4195C20.1254 32.6697 20.1311 32.9155 20.1358 33.1567C20.155 33.8608 20.1754 34.5926 20.1971 35.3521C20.246 38.0813 20.3636 40.7166 20.5497 43.2582C20.6117 44.2514 20.754 45.2275 20.9765 46.1866C21.0176 46.3363 21.0677 46.484 21.1266 46.6299C21.1856 46.7758 21.2576 46.8956 21.3428 46.9893C22.1082 46.8639 22.8729 46.1655 23.637 44.8943C24.4119 43.63 25.1652 41.979 25.8968 39.9412C26.6374 37.9015 27.3407 35.6647 28.0068 33.2309C28.6799 30.7862 29.3091 28.3322 29.8944 25.8689C30.194 21.3605 30.8339 17.6416 31.814 14.7124C32.1346 13.7217 32.5744 12.7663 33.1336 11.8461C33.2108 11.7271 33.3118 11.6544 33.4367 11.6279C33.5615 11.6014 33.6824 11.6223 33.7994 11.6906C33.987 11.8277 34.057 12.0039 34.0096 12.219ZM46.8113 30.953C46.8337 30.8831 46.8771 30.8459 46.9414 30.8415C47.0057 30.8372 47.0613 30.858 47.1084 30.9039C47.1535 30.9409 47.1649 30.9944 47.1425 31.0644C46.9616 31.4848 46.7321 31.8737 46.454 32.231C46.1739 32.5794 45.8777 32.9173 45.5652 33.2446C45.5123 33.3025 45.4629 33.3549 45.4169 33.4019C44.6632 34.1958 43.9113 34.8448 43.1611 35.349C42.4092 35.8443 41.7092 36.0583 41.0612 35.9911C40.4203 35.913 39.8743 35.4047 39.4233 34.4663C39.0206 35.465 38.5667 36.4421 38.0615 37.3974C37.7807 37.8298 37.437 38.0101 37.0303 37.9381C36.6128 37.8591 36.3893 37.5525 36.3596 37.0184C36.3802 35.3181 36.8431 33.7474 37.7482 32.3064C38.0411 31.8435 38.4349 31.4383 38.9295 31.0909C39.1264 30.9652 39.3059 30.955 39.4681 31.0603C39.6391 31.1637 39.7411 31.3144 39.7738 31.5124C39.8047 31.7015 39.7226 31.8634 39.5276 31.9981C38.931 32.479 38.4716 33.0798 38.1496 33.8005C37.8346 34.5104 37.629 35.253 37.5329 36.0282C38.0631 34.9278 38.5366 33.8021 38.9536 32.6512C39.0195 32.4788 39.1317 32.3711 39.2903 32.3281C39.4578 32.2831 39.6108 32.3018 39.7495 32.3842C39.897 32.4647 39.9853 32.595 40.0143 32.7752C39.9516 33.3569 40.0219 33.929 40.2253 34.4915C40.4358 35.0431 40.8598 35.3723 41.4975 35.479C42.3783 35.2825 43.2167 34.8434 44.013 34.1616C44.8092 33.4799 45.5017 32.7922 46.0904 32.0987C46.3991 31.7535 46.6394 31.3716 46.8113 30.953ZM51.3973 30.5653C51.4692 30.5966 51.5507 30.6073 51.6417 30.5972C51.7417 30.5853 51.8452 30.568 51.9521 30.5452C52.0661 30.5117 52.1652 30.4953 52.2492 30.4961C52.3402 30.486 52.3978 30.5157 52.4219 30.5851C52.409 30.6997 52.3225 30.7973 52.1626 30.8779C52.0097 30.9476 51.8387 30.998 51.6496 31.0288C51.4605 31.0597 51.3077 31.0642 51.1912 31.0424C50.8756 30.9604 50.6333 30.8069 50.4644 30.5819C50.2935 30.348 50.1803 30.0785 50.1248 29.7735C49.3892 30.7405 48.7986 31.7979 48.353 32.9456C47.9163 34.0914 47.5818 35.2574 47.3494 36.4436C47.3378 36.5206 47.3046 36.5836 47.2498 36.6325C47.186 36.6833 47.1102 36.6994 47.0224 36.6808C46.9435 36.6603 46.8866 36.6118 46.8517 36.5354C46.8098 36.4697 46.7803 36.3968 46.7633 36.3166C46.7462 36.2363 46.7222 36.1669 46.6911 36.1083C46.2108 34.3747 46.2508 32.6563 46.8113 30.953C46.8982 30.7482 47.0327 30.6358 47.2148 30.6157C47.3969 30.5956 47.5611 30.6446 47.7073 30.7626C47.8535 30.8806 47.9029 31.0472 47.8554 31.2622C47.7222 31.7751 47.6354 32.2874 47.5951 32.7992C48.1328 30.989 49.0251 29.3783 50.272 27.9671C50.4097 27.826 50.561 27.7706 50.7258 27.8008C50.8996 27.8291 51.0338 27.9123 51.1284 28.0506C51.2319 28.187 51.2428 28.3478 51.161 28.5329C51.0344 28.858 50.9558 29.2335 50.9252 29.6593C50.8946 30.0851 51.0519 30.3871 51.3973 30.5653ZM61.048 27.899C61.2652 27.8249 61.3514 27.8578 61.3066 27.9978C61.2688 28.1269 61.1469 28.3206 60.9409 28.5787C60.7348 28.8368 60.5039 29.1095 60.2482 29.3968C59.9995 29.6733 59.7718 29.9174 59.5652 30.1291C59.3567 30.3318 59.2285 30.4522 59.1807 30.4903C58.6011 31.0515 57.998 31.5897 57.3714 32.1049C56.7429 32.6112 56.0626 33.0494 55.3305 33.4193C54.7374 33.7411 54.2778 33.7269 53.9518 33.3769C53.6258 33.0269 53.4521 32.5606 53.4308 31.9781C53.3413 31.0746 53.4783 30.2068 53.8419 29.3748C53.9574 29.1732 54.1101 29.0802 54.2997 29.0958C54.4964 29.1005 54.6574 29.1782 54.7825 29.3286C54.9058 29.4701 54.9205 29.6487 54.8265 29.8644C54.6214 30.3459 54.4757 30.8661 54.3895 31.4249C54.3013 31.9747 54.347 32.4962 54.5263 32.9892C54.7514 33.1277 55.0223 33.1307 55.3389 32.9982C55.6555 32.8657 55.9476 32.7057 56.2153 32.5184C56.3466 32.4346 56.4629 32.3679 56.5642 32.3184C57.4347 31.7234 58.2535 31.0601 59.0206 30.3287C59.7965 29.5953 60.4723 28.7854 61.048 27.899ZM54.4144 27.9253C54.075 27.9508 53.8699 27.8406 53.799 27.5948C53.737 27.3471 53.7797 27.1097 53.9272 26.8827C54.0835 26.6538 54.3125 26.5911 54.614 26.6947C54.7992 26.7765 54.9018 26.9085 54.9218 27.0906C54.94 27.2638 54.9018 27.4349 54.8073 27.6041C54.7128 27.7733 54.5818 27.8803 54.4144 27.9253ZM72.3511 25.5104C72.3843 25.4474 72.4296 25.4192 72.4868 25.4257C72.5422 25.4232 72.588 25.4414 72.6243 25.4803C72.6605 25.5192 72.6664 25.5692 72.6422 25.6303C72.5757 25.7562 72.502 25.8697 72.421 25.9708C71.9662 26.5054 71.3668 27.1267 70.6227 27.8346C69.8876 28.5407 69.1024 29.0989 68.2671 29.5094C67.4389 29.9091 66.6587 29.9212 65.9266 29.5456C65.6437 29.3542 65.4062 29.004 65.2141 28.495C65.0291 27.9753 64.9192 27.4582 64.8844 26.9438C64.1739 27.7657 63.5145 28.6746 62.9061 29.6705C62.3048 30.6556 61.8723 31.6235 61.6084 32.5741C61.5209 32.7325 61.396 32.8242 61.2336 32.8494C61.0713 32.8746 60.9243 32.8406 60.7927 32.7475C60.6591 32.6454 60.5913 32.5014 60.589 32.3155C60.596 31.5593 60.6441 30.7989 60.7332 30.0346C60.7617 29.7303 60.7857 29.427 60.8053 29.1247C60.8053 29.1247 60.8044 29.1202 60.8025 29.1113C60.8342 28.7784 60.8517 28.4439 60.8548 28.1078C60.8698 27.8716 60.9671 27.7158 61.1468 27.6404C61.3245 27.556 61.5015 27.5557 61.6777 27.6393C61.852 27.7141 61.9415 27.8721 61.9462 28.1134C61.9311 28.7875 61.8892 29.4673 61.8206 30.1528C61.7993 30.3158 61.7815 30.4733 61.7673 30.6254C62.2541 29.9349 62.7238 29.2294 63.1764 28.5089C63.7866 27.5219 64.4375 26.5728 65.1291 25.6618C65.2171 25.5499 65.3123 25.5156 65.4147 25.5591C65.5261 25.6007 65.6281 25.6861 65.7208 25.8155C65.8701 26.0354 65.9464 26.2847 65.9497 26.5636C65.962 26.8405 65.9475 27.1231 65.9063 27.4114C65.8638 27.7373 65.8479 28.0575 65.8589 28.372C65.8768 28.6757 65.991 28.9496 66.2013 29.1937C66.6713 29.4759 67.1655 29.5432 67.6839 29.3958C68.2112 29.2464 68.7177 28.999 69.2034 28.6535C69.698 28.3061 70.1212 27.9738 70.4731 27.6568C70.5279 27.6078 70.5863 27.5535 70.6481 27.4938C71.3258 26.9118 71.8935 26.2506 72.3511 25.5104ZM81.0858 23.5979C81.1977 23.6859 81.2099 23.8091 81.1224 23.9675C81.0438 24.124 80.942 24.2807 80.817 24.4378C80.729 24.5496 80.6683 24.6371 80.6351 24.7C80.3608 25.0752 79.8844 25.5958 79.206 26.2618C78.5275 26.9278 77.7657 27.5743 76.9206 28.2012C76.0754 28.8281 75.2745 29.2686 74.5178 29.5226C73.7611 29.7766 73.1727 29.6827 72.7527 29.2409C72.2993 28.5545 72.0711 27.7877 72.068 26.9404C72.0541 26.086 72.2207 25.2912 72.5675 24.5559C72.7808 24.1565 73.0843 23.8963 73.4779 23.7753C73.8715 23.6544 74.1723 23.8421 74.3803 24.3383C74.4976 24.5836 74.4825 24.885 74.3349 25.2425C74.1853 25.5911 73.9775 25.9288 73.7115 26.2556C73.4545 26.5804 73.2204 26.8165 73.0095 26.9639C73.0219 27.5483 73.0921 28.0319 73.22 28.4147C73.4126 28.9701 73.8102 29.1745 74.4126 29.0278C75.024 28.8792 75.7003 28.5538 76.4415 28.0514C77.1897 27.5383 77.8733 27.0063 78.4923 26.4554C79.1114 25.9045 79.5328 25.4981 79.7567 25.2362C80.1891 24.7716 80.5503 24.2568 80.8402 23.692C80.8664 23.6399 80.9018 23.6091 80.9463 23.5996C80.9979 23.5793 81.0444 23.5787 81.0858 23.5979ZM73.6108 24.7954C73.2684 25.157 73.0753 25.6733 73.0315 26.3442C73.2108 26.0918 73.3676 25.8208 73.5017 25.5314C73.634 25.2331 73.6704 24.9877 73.6108 24.7954Z" fill="#2A96CD"/>
<path d="M6.90234 58.7852C13.0623 55.3352 19.3824 52.1952 25.7724 49.1852C32.1624 46.1752 38.6823 43.4352 45.2623 40.8552C51.8488 38.2825 58.5724 36.0758 65.4023 34.2452C72.2323 32.4952 79.2324 31.0052 86.3224 31.0852L81.0524 31.5552C79.3124 31.8352 77.5824 32.1652 75.8524 32.4552C74.1224 32.7452 72.4123 33.2352 70.7023 33.6152C68.9923 33.9952 67.2924 34.4952 65.6024 34.9852C62.2124 35.9152 58.8723 37.0452 55.5323 38.1352C52.1923 39.2252 48.8923 40.4752 45.6223 41.7952C39.0323 44.2752 32.5423 47.0352 26.0923 49.8852C22.859 51.3052 19.649 52.7619 16.4624 54.2552C13.2524 55.7252 10.0723 57.2452 6.90234 58.7852Z" fill="#2A96CD"/>
</svg>
