<svg width="200" height="14" viewBox="0 0 200 14" fill="none" xmlns="http://www.w3.org/2000/svg">
<path d="M10.508 11.612C10.508 11.1267 10.676 10.716 11.012 10.38C11.348 10.044 11.7587 9.876 12.244 9.876C12.7293 9.876 13.14 10.044 13.476 10.38C13.812 10.716 13.98 11.1267 13.98 11.612C13.98 12.0973 13.812 12.508 13.476 12.844C13.14 13.18 12.7293 13.348 12.244 13.348C11.7587 13.348 11.348 13.18 11.012 12.844C10.676 12.508 10.508 12.0973 10.508 11.612ZM3.088 11.612C3.088 11.9853 2.95733 12.3027 2.696 12.564C2.43467 12.8253 2.11733 12.956 1.744 12.956C1.37067 12.956 1.05333 12.8253 0.792 12.564C0.530667 12.3027 0.4 11.9853 0.4 11.612V2.092C0.4 1.71867 0.530667 1.40133 0.792 1.14C1.05333 0.878666 1.37067 0.748 1.744 0.748C1.93067 0.748 2.09867 0.785333 2.248 0.86C2.39733 0.934666 2.54667 1.028 2.696 1.14C3.89067 2.18533 4.91733 3.00667 5.776 3.604C6.65333 4.20133 7.44667 4.64933 8.156 4.948C8.86533 5.24667 9.53733 5.43333 10.172 5.508C10.8253 5.58267 11.516 5.62 12.244 5.62C12.972 5.62 13.644 5.592 14.26 5.536C14.8947 5.46133 15.5573 5.27467 16.248 4.976C16.9573 4.67733 17.7413 4.22933 18.6 3.632C19.4773 3.03467 20.5227 2.204 21.736 1.14C22.0533 0.878666 22.3707 0.748 22.688 0.748C23.0613 0.748 23.3787 0.878666 23.64 1.14C23.9013 1.40133 24.032 1.71867 24.032 2.092V11.612C24.032 11.9853 23.9013 12.3027 23.64 12.564C23.3787 12.8253 23.0613 12.956 22.688 12.956C22.3147 12.956 21.9973 12.8253 21.736 12.564C21.4747 12.3027 21.344 11.9853 21.344 11.612V4.976C20.504 5.648 19.692 6.208 18.908 6.656C18.1427 7.104 17.3867 7.468 16.64 7.748C15.912 8.00933 15.184 8.196 14.456 8.308C13.728 8.42 12.9907 8.476 12.244 8.476C11.4413 8.476 10.6667 8.42 9.92 8.308C9.192 8.196 8.45467 8.00933 7.708 7.748C6.98 7.468 6.23333 7.104 5.468 6.656C4.72133 6.208 3.928 5.648 3.088 4.976V11.612ZM29.2214 12.452C28.9601 12.788 28.6147 12.956 28.1854 12.956C27.8121 12.956 27.4947 12.8253 27.2334 12.564C26.9721 12.3027 26.8414 11.9853 26.8414 11.612C26.8414 11.2573 26.9347 10.9867 27.1214 10.8L33.9254 1.644C34.2427 1.21467 34.6627 0.869333 35.1854 0.608C35.7081 0.327999 36.2681 0.187999 36.8654 0.187999C37.4254 0.187999 37.9574 0.309332 38.4614 0.551999C38.9654 0.794666 39.3761 1.13067 39.6934 1.56L46.4974 10.66C46.5907 10.8093 46.6747 10.9587 46.7494 11.108C46.8427 11.2573 46.8894 11.4253 46.8894 11.612C46.8894 11.9853 46.7587 12.3027 46.4974 12.564C46.2361 12.8253 45.9187 12.956 45.5454 12.956C45.0787 12.956 44.7241 12.7787 44.4814 12.424L37.9574 3.716C37.8267 3.56667 37.6587 3.408 37.4534 3.24C37.2667 3.05333 37.0707 2.96 36.8654 2.96C36.6601 2.96 36.4547 3.05333 36.2494 3.24C36.0627 3.408 35.9134 3.56667 35.8014 3.716L29.2214 12.452ZM68.7688 2.092C68.7688 1.71867 68.8994 1.40133 69.1608 1.14C69.4221 0.878666 69.7394 0.748 70.1128 0.748C70.4861 0.748 70.8034 0.878666 71.0648 1.14C71.3261 1.40133 71.4568 1.71867 71.4568 2.092V10.24C71.4568 11.024 71.2048 11.6773 70.7008 12.2C70.1968 12.704 69.5528 12.956 68.7688 12.956C68.5074 12.956 68.2461 12.9187 67.9848 12.844C67.7421 12.7693 67.5181 12.6667 67.3128 12.536L54.4888 4.696C54.1341 4.49067 53.8354 4.332 53.5928 4.22C53.3688 4.08933 53.1821 4.024 53.0328 4.024C52.7528 4.024 52.5754 4.20133 52.5008 4.556C52.4261 4.91067 52.3888 5.424 52.3888 6.096V11.612C52.3888 11.9853 52.2581 12.3027 51.9968 12.564C51.7354 12.8253 51.4181 12.956 51.0448 12.956C50.6714 12.956 50.3541 12.8253 50.0928 12.564C49.8314 12.3027 49.7008 11.9853 49.7008 11.612V3.464C49.7008 2.68 49.9528 2.036 50.4568 1.532C50.9608 1.00933 51.6048 0.748 52.3888 0.748C52.6501 0.748 52.9021 0.785333 53.1448 0.86C53.4061 0.934666 53.6394 1.03733 53.8448 1.168L66.6688 9.008C67.0234 9.21333 67.3128 9.38133 67.5368 9.512C67.7794 9.624 67.9754 9.68 68.1248 9.68C68.4048 9.68 68.5821 9.50267 68.6568 9.148C68.7314 8.79333 68.7688 8.28 68.7688 7.608V2.092ZM81.6475 6.852C81.6475 6.47867 81.7781 6.16133 82.0395 5.9C82.3008 5.63867 82.6181 5.508 82.9915 5.508H93.7155C94.1821 5.508 94.6208 5.60133 95.0315 5.788C95.4421 5.956 95.7968 6.19867 96.0955 6.516C96.4128 6.81467 96.6555 7.17867 96.8235 7.608C96.9915 8.01867 97.0755 8.45733 97.0755 8.924V9.54C97.0755 10.0253 96.9915 10.4733 96.8235 10.884C96.6555 11.2947 96.4128 11.6587 96.0955 11.976C95.7968 12.2747 95.4421 12.5173 95.0315 12.704C94.6208 12.872 94.1821 12.956 93.7155 12.956H79.1275C78.3621 12.956 77.6808 12.7693 77.0835 12.396C76.4861 12.0227 75.9728 11.5467 75.5435 10.968C75.1328 10.3707 74.8155 9.71733 74.5915 9.008C74.3675 8.28 74.2555 7.56133 74.2555 6.852C74.2555 6.16133 74.3675 5.452 74.5915 4.724C74.8341 3.996 75.1795 3.34267 75.6275 2.764C76.0755 2.16667 76.6168 1.68133 77.2515 1.308C77.8861 0.934666 78.6048 0.748 79.4075 0.748H95.7315C96.1048 0.748 96.4221 0.878666 96.6835 1.14C96.9448 1.40133 97.0755 1.71867 97.0755 2.092C97.0755 2.46533 96.9448 2.78267 96.6835 3.044C96.4221 3.30533 96.1048 3.436 95.7315 3.436H80.0235C79.3701 3.436 78.8381 3.55733 78.4275 3.8C78.0355 4.024 77.7181 4.304 77.4755 4.64C77.2515 4.976 77.0928 5.34933 76.9995 5.76C76.9248 6.152 76.8875 6.516 76.8875 6.852C76.8875 7.188 76.9248 7.56133 76.9995 7.972C77.0928 8.364 77.2515 8.728 77.4755 9.064C77.7181 9.4 78.0355 9.68933 78.4275 9.932C78.8381 10.156 79.3701 10.268 80.0235 10.268H93.6035C93.8275 10.268 94.0235 10.1653 94.1915 9.96C94.3781 9.75467 94.4715 9.512 94.4715 9.232C94.4715 8.952 94.3875 8.70933 94.2195 8.504C94.0701 8.29867 93.8648 8.196 93.6035 8.196H82.9915C82.6181 8.196 82.3008 8.06533 82.0395 7.804C81.7781 7.54267 81.6475 7.22533 81.6475 6.852ZM116.929 10.268C117.563 10.268 118.086 10.156 118.497 9.932C118.907 9.68933 119.225 9.4 119.449 9.064C119.691 8.728 119.85 8.364 119.925 7.972C120.018 7.56133 120.065 7.188 120.065 6.852C120.065 6.516 120.018 6.152 119.925 5.76C119.85 5.34933 119.691 4.976 119.449 4.64C119.225 4.304 118.907 4.024 118.497 3.8C118.086 3.55733 117.563 3.436 116.929 3.436H105.617C104.963 3.436 104.431 3.55733 104.021 3.8C103.629 4.024 103.311 4.304 103.069 4.64C102.845 4.976 102.686 5.34933 102.593 5.76C102.518 6.152 102.481 6.516 102.481 6.852C102.481 7.188 102.518 7.56133 102.593 7.972C102.686 8.364 102.845 8.728 103.069 9.064C103.311 9.4 103.629 9.68933 104.021 9.932C104.431 10.156 104.963 10.268 105.617 10.268H116.929ZM122.669 6.852C122.669 7.56133 122.547 8.28 122.305 9.008C122.081 9.71733 121.745 10.3707 121.297 10.968C120.849 11.5467 120.307 12.0227 119.673 12.396C119.038 12.7693 118.319 12.956 117.517 12.956H104.749C103.983 12.956 103.302 12.7693 102.705 12.396C102.107 12.0227 101.594 11.5467 101.165 10.968C100.754 10.3707 100.437 9.708 100.213 8.98C99.9886 8.252 99.8766 7.54267 99.8766 6.852C99.8766 6.16133 99.9886 5.452 100.213 4.724C100.455 3.996 100.801 3.34267 101.249 2.764C101.697 2.16667 102.238 1.68133 102.873 1.308C103.507 0.934666 104.226 0.748 105.029 0.748H117.797C118.543 0.748 119.215 0.934666 119.813 1.308C120.429 1.68133 120.942 2.16667 121.353 2.764C121.782 3.34267 122.109 3.996 122.333 4.724C122.557 5.452 122.669 6.16133 122.669 6.852ZM142.522 10.268C143.157 10.268 143.68 10.156 144.09 9.932C144.501 9.68933 144.818 9.4 145.042 9.064C145.285 8.728 145.444 8.364 145.518 7.972C145.612 7.56133 145.658 7.188 145.658 6.852C145.658 6.516 145.612 6.152 145.518 5.76C145.444 5.34933 145.285 4.976 145.042 4.64C144.818 4.304 144.501 4.024 144.09 3.8C143.68 3.55733 143.157 3.436 142.522 3.436H131.21C130.557 3.436 130.025 3.55733 129.614 3.8C129.222 4.024 128.905 4.304 128.662 4.64C128.438 4.976 128.28 5.34933 128.186 5.76C128.112 6.152 128.074 6.516 128.074 6.852C128.074 7.188 128.112 7.56133 128.186 7.972C128.28 8.364 128.438 8.728 128.662 9.064C128.905 9.4 129.222 9.68933 129.614 9.932C130.025 10.156 130.557 10.268 131.21 10.268H142.522ZM148.262 6.852C148.262 7.56133 148.141 8.28 147.898 9.008C147.674 9.71733 147.338 10.3707 146.89 10.968C146.442 11.5467 145.901 12.0227 145.266 12.396C144.632 12.7693 143.913 12.956 143.11 12.956H130.342C129.577 12.956 128.896 12.7693 128.298 12.396C127.701 12.0227 127.188 11.5467 126.758 10.968C126.348 10.3707 126.03 9.708 125.806 8.98C125.582 8.252 125.47 7.54267 125.47 6.852C125.47 6.16133 125.582 5.452 125.806 4.724C126.049 3.996 126.394 3.34267 126.842 2.764C127.29 2.16667 127.832 1.68133 128.466 1.308C129.101 0.934666 129.82 0.748 130.622 0.748H143.39C144.137 0.748 144.809 0.934666 145.406 1.308C146.022 1.68133 146.536 2.16667 146.946 2.764C147.376 3.34267 147.702 3.996 147.926 4.724C148.15 5.452 148.262 6.16133 148.262 6.852ZM154.788 8.196C154.265 8.196 153.78 8.10267 153.332 7.916C152.884 7.71067 152.492 7.44 152.156 7.104C151.82 6.768 151.549 6.376 151.344 5.928C151.157 5.48 151.064 4.99467 151.064 4.472C151.064 3.94933 151.157 3.464 151.344 3.016C151.549 2.568 151.82 2.176 152.156 1.84C152.492 1.504 152.884 1.24267 153.332 1.056C153.78 0.850666 154.265 0.748 154.788 0.748H171.784C172.157 0.748 172.475 0.878666 172.736 1.14C172.997 1.40133 173.128 1.71867 173.128 2.092C173.128 2.46533 172.997 2.78267 172.736 3.044C172.475 3.30533 172.157 3.436 171.784 3.436H154.732C154.452 3.436 154.2 3.53867 153.976 3.744C153.771 3.93067 153.668 4.17333 153.668 4.472C153.668 4.752 153.771 4.99467 153.976 5.2C154.2 5.40533 154.452 5.508 154.732 5.508H170.216C170.739 5.508 171.224 5.61067 171.672 5.816C172.139 6.00267 172.54 6.264 172.876 6.6C173.212 6.936 173.473 7.33733 173.66 7.804C173.865 8.252 173.968 8.73733 173.968 9.26C173.968 9.78267 173.865 10.268 173.66 10.716C173.473 11.164 173.212 11.556 172.876 11.892C172.54 12.228 172.139 12.4893 171.672 12.676C171.224 12.8627 170.739 12.956 170.216 12.956H153.248C152.875 12.956 152.557 12.8253 152.296 12.564C152.035 12.3027 151.904 11.9853 151.904 11.612C151.904 11.2387 152.035 10.9213 152.296 10.66C152.557 10.3987 152.875 10.268 153.248 10.268H170.328C170.608 10.268 170.851 10.1747 171.056 9.988C171.261 9.78267 171.364 9.54 171.364 9.26C171.364 8.96133 171.261 8.70933 171.056 8.504C170.851 8.29867 170.608 8.196 170.328 8.196H154.788ZM176.767 2.092C176.767 1.71867 176.898 1.40133 177.159 1.14C177.421 0.878666 177.738 0.748 178.111 0.748H197.963C198.337 0.748 198.654 0.878666 198.915 1.14C199.177 1.40133 199.307 1.71867 199.307 2.092C199.307 2.46533 199.177 2.78267 198.915 3.044C198.654 3.30533 198.337 3.436 197.963 3.436H178.111C177.738 3.436 177.421 3.30533 177.159 3.044C176.898 2.78267 176.767 2.46533 176.767 2.092ZM180.183 12.956C179.773 12.956 179.362 12.872 178.951 12.704C178.541 12.5173 178.177 12.2653 177.859 11.948C177.542 11.6307 177.281 11.248 177.075 10.8C176.87 10.352 176.767 9.848 176.767 9.288V6.768C176.767 6.264 176.907 5.928 177.187 5.76C177.486 5.592 177.943 5.508 178.559 5.508H197.347C197.721 5.508 198.038 5.63867 198.299 5.9C198.561 6.16133 198.691 6.47867 198.691 6.852C198.691 7.22533 198.561 7.54267 198.299 7.804C198.038 8.06533 197.721 8.196 197.347 8.196H179.455V9.568C179.455 9.75467 179.53 9.92267 179.679 10.072C179.847 10.2027 180.062 10.268 180.323 10.268H197.963C198.337 10.268 198.654 10.3987 198.915 10.66C199.177 10.9213 199.307 11.2387 199.307 11.612C199.307 11.9853 199.177 12.3027 198.915 12.564C198.654 12.8253 198.337 12.956 197.963 12.956H180.183Z" fill="black"/>
</svg>
