<svg width="42" height="42" viewBox="0 0 42 42" fill="none" xmlns="http://www.w3.org/2000/svg">
<path d="M26.3778 3.5H15.6398C5.83275 3.5 3.5 5.83275 3.5 15.6222V26.3602C3.5 36.1655 5.81525 38.5 15.6222 38.5H26.3602C36.1655 38.5 38.5 36.1847 38.5 26.3778V15.6398C38.5 5.83275 36.1847 3.5 26.3778 3.5ZM31.7555 28.4725H29.2023C28.2362 28.4725 27.9457 27.6903 26.2132 25.9578C24.7013 24.5 24.0625 24.318 23.6793 24.318C23.1508 24.318 23.0055 24.4632 23.0055 25.193V27.489C23.0055 28.1103 22.8043 28.4743 21.182 28.4743C19.6076 28.3684 18.0809 27.8901 16.7275 27.0787C15.3742 26.2672 14.233 25.1459 13.398 23.807C11.4155 21.3395 10.0361 18.4435 9.3695 15.3492C9.3695 14.966 9.51475 14.6195 10.2445 14.6195H12.796C13.4522 14.6195 13.6885 14.9117 13.9457 15.5855C15.1847 19.2325 17.2987 22.4035 18.1562 22.4035C18.4852 22.4035 18.6288 22.2582 18.6288 21.4375V17.682C18.5203 15.9688 17.6102 15.8235 17.6102 15.204C17.6219 15.0406 17.6968 14.8882 17.819 14.7791C17.9412 14.6699 18.1011 14.6127 18.2648 14.6195H22.2757C22.8235 14.6195 23.0055 14.8925 23.0055 15.5487V20.6168C23.0055 21.1645 23.2418 21.3465 23.4062 21.3465C23.7353 21.3465 23.989 21.1645 24.591 20.5625C25.884 18.9857 26.9404 17.2289 27.727 15.3475C27.8074 15.1215 27.9595 14.928 28.1602 14.7966C28.3608 14.6651 28.599 14.603 28.8382 14.6195H31.3915C32.1562 14.6195 32.319 15.0028 32.1562 15.5487C31.2279 17.6285 30.0791 19.6027 28.7297 21.4375C28.455 21.8575 28.3447 22.0763 28.7297 22.568C28.9835 22.9513 29.8778 23.6985 30.4797 24.409C31.3546 25.2816 32.0811 26.2912 32.6305 27.398C32.8493 28.1085 32.4835 28.4725 31.7555 28.4725Z" fill="#385981"/>
</svg>
